<?xml version="1.0" standalone="no"?><!DOCTYPE svg PUBLIC "-//W3C//DTD SVG 1.1//EN" "http://www.w3.org/Graphics/SVG/1.1/DTD/svg11.dtd"><svg t="1646382935865" class="icon" viewBox="0 0 1024 1024" version="1.1" xmlns="http://www.w3.org/2000/svg" p-id="1125" xmlns:xlink="http://www.w3.org/1999/xlink" width="200" height="200"><defs><style type="text/css"></style></defs><path d="M209.6 807.2c-28 0-50.4-22.4-50.4-50.4V744c0-28 22.4-50.4 50.4-50.4h604.8c28 0 50.4 22.4 50.4 50.4v12.8c0 28-22.4 50.4-50.4 50.4H209.6z" fill="#FFDFC5" p-id="1126"></path><path d="M814.4 710.4c18.4 0 33.6 15.2 33.6 33.6v12.8c0 18.4-15.2 33.6-33.6 33.6H209.6c-18.4 0-33.6-15.2-33.6-33.6V744c0-18.4 15.2-33.6 33.6-33.6h604.8m0-34.4H209.6c-37.6 0-67.2 30.4-67.2 67.2v12.8c0 37.6 30.4 67.2 67.2 67.2h604.8c37.6 0 67.2-30.4 67.2-67.2V744c0-37.6-30.4-68-67.2-68z" fill="#ED9451" p-id="1127"></path><path d="M512 266.4m-48 0a48 48 0 1 0 96 0 48 48 0 1 0-96 0Z" fill="#FFDFC5" p-id="1128"></path><path d="M512 234.4c17.6 0 32 14.4 32 32s-14.4 32-32 32-32-14.4-32-32c0-18.4 14.4-32 32-32m0-32c-35.2 0-64 28.8-64 64s28.8 64 64 64 64-28.8 64-64-28.8-64-64-64z" fill="#ED9451" p-id="1129"></path><path d="M512 234.4c17.6 0 32 14.4 32 32s-14.4 32-32 32" fill="#F2C5A7" p-id="1130"></path><path d="M221.6 690.4l-1.6-14.4c-4-32.8-4-53.6-4-81.6 0-163.2 132.8-296 296-296s296 132.8 296 296c0 28 0 57.6-4 82.4l-2.4 13.6H221.6z" fill="#FFDFC5" p-id="1131"></path><path d="M512 314.4c154.4 0 280 125.6 280 280 0 28 0 56-4 80h-552c-4-32-4-52-4-80 0-155.2 125.6-280 280-280m0-32c-172 0-312 140-312 312 0 28 0 49.6 4 84l3.2 28H816l4-27.2c4-26.4 4-56 4-84.8 0-172.8-140-312-312-312z" fill="#ED9451" p-id="1132"></path><path d="M512 674.4h276c4-24 4-52 4-80 0-154.4-125.6-280-280-280M512 710.4h302.4c18.4 0 33.6 15.2 33.6 33.6v12.8c0 18.4-15.2 33.6-33.6 33.6H512" fill="#F2C5A7" p-id="1133"></path><path d="M272 704h24v88h-24zM386.4 704h24v88h-24zM500 704h24v88h-24zM614.4 704h24v88h-24zM728 704h24v88h-24z" fill="#ED9451" p-id="1134"></path></svg>