<?xml version="1.0" standalone="no"?><!DOCTYPE svg PUBLIC "-//W3C//DTD SVG 1.1//EN" "http://www.w3.org/Graphics/SVG/1.1/DTD/svg11.dtd"><svg t="1646382903394" class="icon" viewBox="0 0 1024 1024" version="1.1" xmlns="http://www.w3.org/2000/svg" p-id="982" xmlns:xlink="http://www.w3.org/1999/xlink" width="200" height="200"><defs><style type="text/css"></style></defs><path d="M323.2 821.6c-14.4 0-25.6-11.2-25.6-25.6v-280L288 524.8c-4.8 4-10.4 6.4-16.8 6.4-7.2 0-14.4-3.2-19.2-8L143.2 406.4c-9.6-10.4-8.8-26.4 0.8-36l164.8-160.8c4.8-4.8 11.2-7.2 17.6-7.2h62.4c9.6 0 18.4 5.6 23.2 13.6 7.2 13.6 35.2 59.2 100 59.2 64 0 92.8-44.8 100-59.2 4.8-8.8 13.6-13.6 23.2-13.6h67.2c6.4 0 13.6 2.4 18.4 7.2l160 160c9.6 9.6 9.6 25.6 0 36L772 519.2c-4.8 4.8-11.2 8-18.4 8-5.6 0-11.2-1.6-15.2-4.8l-6.4-4.8v278.4c0 14.4-11.2 25.6-25.6 25.6H323.2z" fill="#FFC8C2" p-id="983"></path><path d="M702.4 218.4c2.4 0 4.8 0.8 7.2 3.2l160 160c4 4 4 9.6 0 13.6L760.8 508c-1.6 1.6-4.8 3.2-7.2 3.2s-4-0.8-5.6-1.6l-16-12c-1.6-1.6-4-1.6-5.6-1.6-4.8 0-9.6 4-9.6 9.6v291.2c0 5.6-4 9.6-9.6 9.6h-384c-5.6 0-9.6-4-9.6-9.6V502.4c0-5.6-4.8-9.6-9.6-9.6-2.4 0-4.8 0.8-6.4 2.4l-20 18.4c-1.6 1.6-4 2.4-6.4 2.4s-5.6-0.8-7.2-3.2L154.4 395.2c-3.2-4-3.2-9.6 0-13.6l165.6-160c1.6-1.6 4-2.4 6.4-2.4h62.4c4 0 7.2 2.4 8.8 5.6 8.8 16.8 40.8 67.2 113.6 67.2s105.6-50.4 113.6-67.2c1.6-3.2 4.8-5.6 8.8-5.6h68.8m0-32.8h-67.2c-16 0-29.6 8.8-36.8 22.4-8 15.2-32 50.4-85.6 50.4s-77.6-35.2-85.6-50.4c-7.2-13.6-21.6-22.4-36.8-22.4H328c-11.2 0-21.6 4-28.8 12l-166.4 160c-16 16-16.8 41.6-1.6 58.4l108 116.8c8 8.8 19.2 13.6 30.4 13.6 4 0 7.2-0.8 11.2-1.6v249.6c0 23.2 18.4 41.6 41.6 41.6h383.2c23.2 0 41.6-18.4 41.6-41.6V543.2c1.6 0 4 0.8 5.6 0.8 11.2 0 22.4-4.8 30.4-12.8l108.8-112.8c16-16 15.2-42.4-0.8-58.4l-160-160a36.8 36.8 0 0 0-28.8-13.6z" fill="#F96C55" p-id="984"></path><path d="M512 291.2c72.8 0 105.6-50.4 113.6-67.2 1.6-3.2 4.8-5.6 8.8-5.6h67.2c2.4 0 4.8 0.8 7.2 3.2l160 160c4 4 4 9.6 0 13.6L760.8 508c-4 4-8.8 4-12.8 1.6l-16-12c-6.4-4.8-15.2 0-15.2 8v291.2c0 5.6-4 9.6-9.6 9.6H512" fill="#FFB3A7" p-id="985"></path><path d="M640 472.8c-29.6 0-52.8-21.6-52.8-48.8v-56c0-8.8 8-16 16.8-16h72c8.8 0 16.8 7.2 16.8 16v56c0 12-4 23.2-12.8 32.8-10.4 9.6-24.8 16-40 16z" fill="#FFB3A7" p-id="986"></path><path d="M675.2 364c2.4 0 4 1.6 4 3.2V424c0.8 20-17.6 36-40 36s-40-16-40-36v-56.8c0-1.6 2.4-3.2 4-3.2h72m0-25.6h-72c-16 0-29.6 13.6-29.6 28.8V424c0 33.6 29.6 61.6 65.6 61.6 18.4 0 36-7.2 48.8-20 11.2-11.2 16.8-26.4 16.8-41.6v-56c0-16-13.6-29.6-29.6-29.6z" fill="#F96C55" p-id="987"></path></svg>